<svg version="1.1" xmlns="http://www.w3.org/2000/svg" xmlns:xlink="http://www.w3.org/1999/xlink" width="253.11753" height="349.8551" viewBox="0,0,253.11753,349.8551"><g transform="translate(-110.15648,-3.90617)"><g data-paper-data="{&quot;isPaintingLayer&quot;:true}" fill="none" fill-rule="nonzero" stroke="#ffffff" stroke-width="2" stroke-linejoin="miter" stroke-miterlimit="10" stroke-dasharray="" stroke-dashoffset="0" style="mix-blend-mode: normal"><path d="M267.38549,18.42331c22.78242,3.99734 39.12328,14.87391 39.12328,27.66469c0,16.18245 -26.15587,29.3009 -58.42078,29.3009c-32.2649,0 -58.42078,-13.11845 -58.42078,-29.3009c0,-12.79098 16.34136,-23.66767 39.12433,-27.66487" stroke-linecap="butt"/><path d="M245.45935,55.11909v0v0z" stroke-linecap="butt"/><path d="M266.58685,20.8139c20.25054,3.73416 34.68667,13.4494 34.68667,24.84611c0,14.62555 -23.77478,26.4819 -53.10246,26.4819c-29.32768,0 -53.10246,-11.85634 -53.10246,-26.4819c0,-11.31543 14.23096,-20.97329 34.25429,-24.7653" stroke-linecap="butt"/><path d="M306.49149,46.69007v6.20415c0,16.18245 -26.15586,29.3009 -58.42077,29.3009c-32.26491,0 -58.42078,-13.11845 -58.42078,-29.3009l0.01728,-7.01635" stroke-linecap="butt"/><path d="M230.45056,23.04962v33.51503" stroke-linecap="round"/><path d="M248.05223,60.83643c-2.14189,0 -4.78058,-0.56026 -6.60071,0.22711c-0.71705,0.31019 -1.78433,1.88241 -3.73669,2.36565c-1.6836,0.41671 -2.79713,0.6216 -4.88708,0.10941c-2.19729,-0.53849 -2.54211,-1.90644 -1.93338,-2.87628c0.49689,-0.79166 1.7031,-1.32401 1.31699,-1.94596c-0.93983,-1.51387 -0.64116,-0.94993 -3.73742,-2.62417c-1.33475,-0.72174 -2.29859,-2.55535 -2.97709,-3.30691c-0.45802,-0.50733 -2.6233,-0.18614 -4.57666,-0.39467c-2.85327,-0.30461 -4.8447,-1.22908 -4.65329,-2.98365c0.1742,-1.5969 2.91129,-2.14957 5.14481,-1.98353c2.17751,0.16188 3.0206,1.06947 3.74581,-0.15296c0.82726,-1.39445 2.63016,-2.91954 5.09462,-4.33682" stroke-linecap="butt"/><path d="M265.34233,23.15824v33.51503" stroke-linecap="round"/><path d="M254.40005,59.86163v-33.51502" stroke-linecap="round"/><path d="M242.00847,26.27407v33.51502" stroke-linecap="round"/><path d="M235.05176,25.11455v34.80612" stroke-linecap="round"/><path d="M260.70426,24.86084v34.68874" stroke-linecap="round"/><path d="M265.84025,42.95602c2.46446,1.41727 4.26736,2.94237 5.09462,4.33682c0.72521,1.22243 1.5683,0.31484 3.7458,0.15296c2.23352,-0.16604 4.97061,0.38663 5.14482,1.98353c0.1914,1.75457 -1.80002,2.67903 -4.65329,2.98364c-1.95337,0.20853 -4.11864,-0.11266 -4.57666,0.39468c-0.6785,0.75156 -1.64234,2.58517 -2.97709,3.30691c-3.09626,1.67424 -2.7976,1.1103 -3.73742,2.62417c-0.38612,0.62195 0.82009,1.1543 1.31699,1.94596c0.60873,0.96984 0.26391,2.33779 -1.93338,2.87629c-2.08995,0.51218 -3.20349,0.3073 -4.88709,-0.10941c-1.95236,-0.48324 -3.01963,-2.05547 -3.73669,-2.36566c-1.82013,-0.78737 -4.45882,-0.22711 -6.60071,-0.22711" data-paper-data="{&quot;index&quot;:null}" stroke-linecap="butt"/><path d="M231.28216,60.85297c0,0 1.11489,-0.75103 3.93022,-0.25218c3.24337,0.5747 3.34685,1.89538 3.34685,1.89538" stroke-linecap="round"/><path d="M257.1744,62.56655c0,0 0.10347,-1.32069 3.34684,-1.89539c2.81532,-0.49885 3.93022,0.25218 3.93022,0.25218" data-paper-data="{&quot;index&quot;:null}" stroke-linecap="round"/><path d="M225.76567,52.87167v-5.98598" stroke-linecap="round"/><path d="M270.43744,52.94204v-5.98598" stroke-linecap="round"/><path d="M278.45075,84.94932c3.25144,2.58782 5.12371,5.62535 5.12371,8.87426c0,9.45502 -15.85683,17.11984 -35.41722,17.11984c-19.56039,0 -35.41723,-7.66482 -35.41723,-17.11984c0,-3.32973 1.96657,-6.43744 5.36891,-9.06655" stroke-linecap="butt"/><path d="M283.60918,93.65964l-0.10726,8.60602c0,9.45502 -15.85683,17.11984 -35.41723,17.11984c-19.5604,0 -35.41723,-7.66482 -35.41723,-17.11984l0.0806,-7.99491" stroke-linecap="butt"/><path d="M243.89991,107.32017v-24.45691" stroke-linecap="round"/><path d="M251.97967,82.97189v24.45691" stroke-linecap="round"/><path d="M260.42176,82.17469v24.45691" stroke-linecap="round"/><path d="M265.96524,81.37749v24.45691" stroke-linecap="round"/><path d="M273.68268,101.77628v-22.10179" stroke-linecap="round"/><path d="M277.95803,98.26166v-19.92785" stroke-linecap="round"/><path d="M235.67467,106.55905v-24.4569" data-paper-data="{&quot;index&quot;:null}" stroke-linecap="round"/><path d="M230.13119,105.76185v-24.4569" data-paper-data="{&quot;index&quot;:null}" stroke-linecap="round"/><path d="M222.41375,79.60195v22.10179" data-paper-data="{&quot;index&quot;:null}" stroke-linecap="round"/><path d="M218.1384,98.18912v-19.92785" data-paper-data="{&quot;index&quot;:null}" stroke-linecap="round"/><path d="M194.55242,85.31976c0,1.1598 -1.96994,2.1 -4.4,2.1c-2.43006,0 -4.4,-0.9402 -4.4,-2.1c0,-1.1598 1.96994,-3.1 4.4,-3.1c2.43006,0 4.4,1.9402 4.4,3.1z" stroke-linecap="butt"/><path d="M180.75242,96.51976c0,1.1598 -1.96994,2.1 -4.4,2.1c-2.43006,0 -4.4,-0.9402 -4.4,-2.1c0,-1.1598 1.96994,-3.1 4.4,-3.1c2.43006,0 4.4,1.9402 4.4,3.1z" stroke-linecap="butt"/><path d="M167.35242,108.31976c0,1.1598 -1.96994,2.1 -4.4,2.1c-2.43006,0 -4.4,-0.9402 -4.4,-2.1c0,-1.1598 1.96994,-3.1 4.4,-3.1c2.43006,0 4.4,1.9402 4.4,3.1z" stroke-linecap="butt"/><path d="M213.95242,121.51976c0,1.1598 -1.96994,2.1 -4.4,2.1c-2.43006,0 -4.4,-0.9402 -4.4,-2.1c0,-1.1598 1.96994,-3.1 4.4,-3.1c2.43006,0 4.4,1.9402 4.4,3.1z" stroke-linecap="butt"/><path d="M237.55242,128.51976c0,1.1598 -1.96994,2.1 -4.4,2.1c-2.43006,0 -4.4,-0.9402 -4.4,-2.1c0,-1.1598 1.96994,-3.1 4.4,-3.1c2.43006,0 4.4,1.9402 4.4,3.1z" stroke-linecap="butt"/><path d="M284.15242,141.91976c0,1.1598 -1.96995,2.1 -4.4,2.1c-2.43005,0 -4.4,-0.9402 -4.4,-2.1c0,-1.1598 1.96994,-3.1 4.4,-3.1c2.43005,0 4.4,1.9402 4.4,3.1z" stroke-linecap="butt"/><path d="M296.75242,130.31976c0,1.1598 -1.96994,2.1 -4.4,2.1c-2.43005,0 -4.4,-0.9402 -4.4,-2.1c0,-1.1598 1.96994,-3.1 4.4,-3.1c2.43005,0 4.4,1.9402 4.4,3.1z" stroke-linecap="butt"/><path d="M310.75242,118.91976c0,1.1598 -1.96994,2.1 -4.4,2.1c-2.43005,0 -4.4,-0.9402 -4.4,-2.1c0,-1.1598 1.96994,-3.1 4.4,-3.1c2.43005,0 4.4,1.9402 4.4,3.1z" stroke-linecap="butt"/><path d="M323.55242,107.31976c0,1.1598 -1.96994,2.1 -4.4,2.1c-2.43005,0 -4.4,-0.9402 -4.4,-2.1c0,-1.1598 1.96995,-3.1 4.4,-3.1c2.43005,0 4.4,1.9402 4.4,3.1z" stroke-linecap="butt"/><path d="M337.15242,95.51976c0,1.1598 -1.96995,2.1 -4.4,2.1c-2.43005,0 -4.4,-0.9402 -4.4,-2.1c0,-1.1598 1.96994,-3.1 4.4,-3.1c2.43005,0 4.4,1.9402 4.4,3.1z" stroke-linecap="butt"/><path d="M290.95242,82.31976c0,1.1598 -1.96995,2.1 -4.4,2.1c-2.43005,0 -4.4,-0.9402 -4.4,-2.1c0,-1.1598 1.96994,-3.1 4.4,-3.1c2.43005,0 4.4,1.9402 4.4,3.1z" stroke-linecap="butt"/><path d="M298.96218,67.08777c0.25637,-0.0441 0.52047,-0.06802 0.79024,-0.06802c2.43005,0 4.4,1.9402 4.4,3.1c0,1.1598 -1.96995,2.1 -4.4,2.1c-2.07353,0 -3.81205,-0.68455 -4.27755,-1.60597" stroke-linecap="butt"/><path d="M207.54128,74.20732c-0.70078,0.71618 -2.22339,1.21244 -3.98886,1.21244c-2.43006,0 -4.4,-0.9402 -4.4,-2.1c0,-0.76035 0.84667,-1.85611 2.11459,-2.52071" stroke-linecap="butt"/><path d="M198.25766,133.6895c0,0.36819 -0.89543,0.66666 -2,0.66666c-1.10457,0 -2,-0.29847 -2,-0.66666c0,-0.36819 0.89543,-0.66666 2,-0.66666c1.10457,0 2,0.29847 2,0.66666z" stroke-linecap="butt"/><path d="M209.85766,136.8895c0,0.36819 -0.89543,0.66666 -2,0.66666c-1.10457,0 -2,-0.29847 -2,-0.66666c0,-0.36819 0.89543,-0.66666 2,-0.66666c1.10457,0 2,0.29847 2,0.66666z" stroke-linecap="butt"/><path d="M221.45766,140.2895c0,0.36819 -0.89543,0.66666 -2,0.66666c-1.10457,0 -2,-0.29847 -2,-0.66666c0,-0.36819 0.89543,-0.66666 2,-0.66666c1.10457,0 2,0.29847 2,0.66666z" stroke-linecap="butt"/><path d="M223.05766,125.4895c0,0.36819 -0.89543,0.66666 -2,0.66666c-1.10457,0 -2,-0.29847 -2,-0.66666c0,-0.36819 0.89543,-0.66667 2,-0.66667c1.10457,0 2,0.29848 2,0.66667z" stroke-linecap="butt"/><path d="M302.90099,62.2963c27.54947,8.61991 45.76605,23.55845 45.76605,40.54321c0,26.69377 -44.99538,48.33333 -100.5,48.33333c-55.50461,0 -100.5,-21.63957 -100.5,-48.33333c0,-16.90765 18.05154,-31.78761 45.3914,-40.42541" stroke-linecap="butt"/><path d="M330.62317,74.40012l7.5,1.16667v1.66666l-1.5,2l6.5,0.33334v2l-1.33333,2.33333l5.16667,0.5v2.16667l-1.5,1.66666l4.33333,0.83334v2.5l-1.5,1.5l4,1.66666v1.5l-2.5,2l3.83333,1.16667v2l-3.5,2.5l3.16667,0.66667l-0.16667,2.16666l-3.5,1.16667l3,2v1.83333l-4.83333,1.33333l2.66667,1.83334v2.33333l-5.33334,1l2.16667,2.16667v2l-5.83333,0.66666l2.66667,1.83334v2.33333l-6.5,0.33334l-1.5,-0.5l3.83334,1.66666v3.16666l-6.41667,1.20834l-3.75,-1.70834l3.79167,1.83334l-0.45834,2.33334h-5.625l-1.875,-1.625l1.95834,1.70833l1.125,3.58334l-3.58334,1.83334l-6.83333,-3.20834l2.45833,1.41666l0.375,2.625l-1.75,1.58334l-10.41666,-2.08334l3.66666,1l1,2.66667l-1.83333,2h-7l-0.16667,2.16666l-3.16666,0.66666l-5,-0.5l-0.33334,2.5l-2.66666,0.66667l-3.66667,-1.5l-2.33333,0.5l-1.16667,2l-1.83333,1l-3.66667,-1h-3.5l-0.66667,2.16666h-2.83333l-2.5,-1.16666h-3.66667l-1.66666,2h-2.16667l-3.83333,-1.5h-1.5l-2.51343,1.92273h-2.33334l-1.83333,-1.33333h-3.33333l-2.83334,1.5h-1.83333l-2.5,-2h-3.5l-1.66667,1h-2.5l-2.33333,-1.33333h-3l-2.5,1h-2.5l-3.33333,-2.66667l-3.66667,1.16667h-3.16667v-6v4.16666h-8.66666l-1.16667,-1.16666l0.83333,-4l-0.66666,3h-8.66667l0.5,-6l-0.5,3.66666l-9,-0.5v-2.66666l1.5,-2.83334l-1.16667,2.33334l-8.16666,-0.16667v-1.5l1.16666,-3.66667l-0.83333,2.16667l-7.66667,-0.5v-3.16667l2.5,-2.16666l-2,1.66666l-7,-0.5v-2.16666l2,-2.83334l-1.16666,1.5l-6.66667,-0.33333v-2.5l2.33333,-2.5l-1.66666,1.33333l-5.33334,-1.5v-2l2.83334,-2l-2,1.33333l-5.33334,-2v-2.16667l2.66667,-1.66666l-5.5,-1.16667v-2l3,-1.83333l-1.5,0.66666l-3.66667,-1.33333v-2.33333l2.66667,-2l-4,-1.16667v-1.83333l3.16667,-2.33334l-3.16667,-0.66666v-2l3.83333,-2.33334l-2.5,-0.66666v-1.83334l4,-1.83333l-2.83333,-1.66667v-1.66666l4.83333,-1.5l-1.66666,-1.33334v-2l5.5,-1.83333l-1.66667,-0.83333v-2l6,-1.5l-1.33334,-1.16667v-2l6.66666,-1.5l-1,-0.83333v-2.33334l7.83334,-1l-1.66667,-1v-2.16666l8,-0.5l-0.83333,-0.83334v-2l8.83333,-0.66666l-1,-0.83334v-1.83333l7.66667,-0.16667" stroke-linecap="round"/><path d="M216.77641,153.32284l2.16667,-3.66667" stroke-linecap="round"/><path d="M222.10974,150.32284l0.5,4" stroke-linecap="round"/><path d="M228.44308,151.32284l-2.33334,4" stroke-linecap="round"/><path d="M232.10974,154.82284l-0.66666,-3.83334" stroke-linecap="round"/><path d="M238.77641,151.32284l-2,4" stroke-linecap="round"/><path d="M241.77641,151.65617l1,4" stroke-linecap="round"/><path d="M246.60974,155.9895l1.33334,-4.33333" stroke-linecap="round"/><path d="M252.94308,155.9895l-1.16667,-4.5" stroke-linecap="round"/><path d="M209.44308,147.82284l-3.33334,3.83333" stroke-linecap="round"/><path d="M149.10974,118.32283l1.83333,-1.16666" stroke-linecap="round"/><path d="M145.10974,113.65617l3.83334,-1.5" stroke-linecap="round"/><path d="M145.44308,108.15617l2,-1.33333" stroke-linecap="round"/><path d="M144.44308,103.32284l3,-1" stroke-linecap="round"/><path d="M304.78983,59.9001l5,0.16667v1.16667l-1.16667,2l8.66667,0.16666v1.83333l-0.83333,1.16667h8.5v2l-1.16667,1.66667l7.5,0.5v2.16666l-0.83333,1.5" stroke-linecap="round"/><path d="M256.78983,156.23343l0.83333,-4.66666" stroke-linecap="round"/><path d="M261.28983,151.23343l3.16667,4.66666" stroke-linecap="round"/><path d="M267.62316,151.06676l-0.16666,3.33333" stroke-linecap="round"/><path d="M270.28983,150.40009l3.66667,4.5" stroke-linecap="round"/><path d="M277.28983,149.73343v3.5" stroke-linecap="round"/><path d="M280.4565,149.23343l4,4.33334" stroke-linecap="round"/><path d="M286.28983,148.06677l0.83333,3.16666" stroke-linecap="round"/><path d="M289.78983,147.73343l2.83333,4.16666" stroke-linecap="round"/><path d="M295.9565,146.56676l0.5,2.83333" stroke-linecap="round"/><path d="M298.12316,145.40009l5.16667,3.5" stroke-linecap="round"/><path d="M304.4565,143.56677l0.33333,2.83333" stroke-linecap="round"/><path d="M339.32238,123.5251l4.66667,1.33333" stroke-linecap="round"/><path d="M343.15572,119.0251l2.5,0.33333" stroke-linecap="round"/><path d="M346.82239,114.0251h1.5" stroke-linecap="round"/><path d="M351.15572,109.35843h-2.5" stroke-linecap="round"/><path d="M199.19792,212.82284v-15.75" stroke-linecap="round"/><path d="M209.19792,212.82284v-15.91667" stroke-linecap="round"/><path d="M304.95982,149.37045l-25.36725,21.673c-1.03861,0.89561 -2.83687,1.73615 -5.79475,2.57622l-66.67378,17.56819c-0.88565,0.22926 -1.92356,0.36116 -3.03326,0.36116c-1.85262,0 -3.00517,-0.36763 -4.08312,-0.60884c-1.19204,-0.26674 -60.9236,-17.15934 -60.9236,-17.15934c-2.02189,-0.57961 -3.42316,-1.90216 -3.54872,-3.14481c-0.19206,-1.90088 -2.20206,-36.25364 -2.20206,-36.25364c-0.01865,-0.2113 -0.02821,-0.42578 -0.02821,-0.6429c0,-1.61593 0.52963,-3.08612 1.39554,-4.18281l12.4616,-11.24577" stroke-linecap="butt"/><path d="M318.62649,143.20379l-39.11725,33.50634c-1.03861,0.89561 -2.83688,1.73615 -5.79476,2.57621l-66.67378,17.56819c-0.88565,0.22926 -1.92356,0.36116 -3.03326,0.36116c-1.85262,0 -3.00517,-0.36763 -4.08312,-0.60884c-1.19204,-0.26674 -60.9236,-17.15934 -60.9236,-17.15934c-2.02189,-0.57961 -3.42316,-1.90216 -3.54872,-3.1448c-0.19206,-1.90088 -2.03539,-35.58697 -2.03539,-35.58697c-0.01865,-0.2113 -0.12345,-7.70243 -0.12345,-7.70243" stroke-linecap="butt"/><g stroke-linecap="butt"><path d="M267.76036,14.22738c0,5.14796 -8.80507,9.32121 -19.66666,9.32121c-10.8616,0 -19.66667,-4.17325 -19.66667,-9.32121c0,-5.14796 8.80507,-9.32121 19.66667,-9.32121c10.8616,0 19.66666,4.17325 19.66666,9.32122z"/><path d="M256.43878,13.24986c0,2.31959 -3.74902,4.2 -8.37368,4.2c-4.62466,0 -8.37369,-1.88041 -8.37369,-4.2c0,-2.31959 3.74903,-4.2 8.37369,-4.2c4.62466,0 8.37368,1.88041 8.37368,4.2z"/><path d="M252.162,11.94986c0,1.04934 -1.85144,1.9 -4.1353,1.9c-2.28386,0 -4.13529,-0.85066 -4.13529,-1.9c0,-1.04934 1.85143,-1.9 4.13529,-1.9c2.28386,0 4.1353,0.85066 4.1353,1.9z"/><path d="M267.73167,14.00961c0,0 -0.12077,4.95248 -0.12077,5.04025c0,4.0869 -9.00517,7.4 -19.71949,7.4c-10.71432,0 -19.4,-3.31309 -19.4,-7.4c0,-0.67353 -0.12209,-5.14618 -0.12209,-5.14618"/></g><g stroke-linecap="butt"><path d="M217.76989,153.66233c0.42869,0.76526 0.65714,1.56918 0.65714,2.39839c0,5.14796 -8.80506,9.32121 -19.66666,9.32121c-10.8616,0 -19.66667,-4.17324 -19.66667,-9.32121c0,-3.63738 4.39581,-6.78815 10.80692,-8.32404"/><path d="M207.10545,155.08319c0,2.31959 -3.74902,4.2 -8.37368,4.2c-4.62466,0 -8.37368,-1.88041 -8.37368,-4.2c0,-2.31959 3.74902,-4.2 8.37368,-4.2c4.62466,0 8.37368,1.8804 8.37368,4.2z"/><path d="M202.82867,153.7832c0,1.04934 -1.85144,1.9 -4.1353,1.9c-2.28386,0 -4.13529,-0.85066 -4.13529,-1.9c0,-1.04934 1.85143,-1.9 4.13529,-1.9c2.28386,0 4.1353,0.85066 4.1353,1.9z"/><path d="M218.39833,155.84295c0,0 -0.12076,4.95249 -0.12076,5.04025c0,4.0869 -9.00516,7.4 -19.71949,7.4c-10.71432,0 -19.4,-3.31309 -19.4,-7.4c0,-0.67354 -0.12209,-5.14619 -0.12209,-5.14619"/></g><path d="M222.8291,155.22076c0.205,0.63017 0.31153,1.27663 0.31153,1.93541c0,6.67344 -10.93171,12.08333 -24.41666,12.08333c-13.48495,0 -24.41667,-5.40989 -24.41667,-12.08333c0,-4.50532 4.98242,-8.43475 12.3692,-10.51245" stroke-linecap="butt"/><path d="M261.32572,195.83277l-53.7279,18.54524c-0.88565,0.22926 -1.92356,0.36116 -3.03326,0.36116c-1.85262,0 -3.00517,-0.36763 -4.08313,-0.60884c-1.19204,-0.26674 -60.9236,-17.15934 -60.9236,-17.15934c-2.02189,-0.57961 -3.42316,-1.90216 -3.54871,-3.1448c-0.19206,-1.90088 -2.20206,-36.25364 -2.20206,-36.25364c-0.01865,-0.2113 -0.02822,-0.42578 -0.02822,-0.6429c0,-1.61593 0.11671,-1.94416 0.98262,-3.04085" stroke-linecap="butt"/><path d="M133.84076,156.79217v-9.77249" stroke-linecap="round"/><path d="M144.98965,182.11805c0,0 -0.0354,7.61128 0,11.01125c0.02241,2.15223 -2.75432,3.0141 -4.82582,2.96777c-3.44071,-0.07695 -4.12082,-2.96777 -4.12082,-2.96777" stroke-linecap="round"/><path d="M135.90537,179.77816v13.48879" stroke-linecap="round"/><path d="M161.99509,133.34208c0,0 -0.92632,1.27603 -1.67946,1.64172c-2.01182,0.97685 -10.95192,4.3647 -10.95192,4.3647c0,0 -5.42214,2.0336 -9.35288,1.69018c-2.7977,-0.24442 -2.90708,-2.94626 -2.90708,-2.94626c0,0 -0.70087,-4.19507 0.18882,-5.87594c0.95194,-1.79845 3.19982,-3.68441 3.19982,-3.68441l8.03269,-6.84907" stroke-linecap="round"/><path d="M172.38554,141.32073c2.98333,1.94881 3.17248,2.10132 4.26432,3.34031c1.72636,1.95903 -1.26464,3.51413 -2.29785,4.25342c-1.34833,0.96477 -2.64367,1.90712 -4.24691,2.16165c-2.36518,0.37549 -5.30354,-0.17517 -5.30354,-0.17517l-13.90395,-2.14631c0,0 -6.49944,-0.8882 -6.49665,-3.20576c0.00178,-1.48021 5.05854,-2.97088 5.05854,-2.97088l13.66369,-4.805c0,0 1.91049,-0.50354 2.40448,-0.5366c3.33906,-0.22351 3.82285,2.10177 6.85787,4.08434z" stroke-linecap="round"/><path d="M145.89952,149.78471l20.03964,3.17083c0,0 1.75709,0.38311 2.5113,0.55807c1.41969,0.32935 1.54736,1.47126 1.54736,1.47126v4.81966c0,0 0.08648,1.22184 -0.3596,2.08689c-0.53391,1.03536 -1.79656,1.21077 -1.79656,1.21077l-19.80723,4.40324c0,0 -2.01415,0.54882 -5.86283,0.07691c-3.41465,-0.41869 -3.12107,-2.07032 -3.12107,-2.07032l-0.63416,-13.06382c0,0 -0.29012,-2.01949 2.09656,-2.60144c2.80745,-0.66237 5.3866,-0.06206 5.3866,-0.06206z" stroke-linecap="round"/><path d="M150.46551,169.49884l18.39081,-4.11365c0,0 2.13923,-0.38032 3.56519,-0.36046c2.26766,0.0316 2.77647,0.61412 2.77647,0.61412c0,0 1.40987,0.9232 2.03379,1.31046c0.6013,0.37322 1.89803,0.97253 1.89803,0.97253c0,0 1.1415,0.2762 1.01467,1.9025c-0.09028,1.15769 -0.88783,1.9025 -0.88783,1.9025l-5.32699,5.07332c0,0 -1.7572,1.85371 -3.57034,2.08608c-1.85834,0.23817 -3.91282,-0.05675 -3.91282,-0.05675l-15.72732,-4.31233c0,0 -3.24332,-0.50352 -3.25156,-2.41088c-0.00935,-2.16542 2.9979,-2.60746 2.9979,-2.60746z" stroke-linecap="round"/><path d="M183.56897,172.23418c0,0 1.48906,-0.95464 2.62025,-1.18445c2.08231,-0.42301 3.72141,0.04295 3.72141,0.04295c0,0 1.13759,0.34994 3.07255,0.557c1.95523,0.20922 3.2691,0.33084 3.2691,0.33084c0,0 1.10841,0.16589 2.05838,1.10113c0.77089,0.75894 1.23928,2.06969 1.23928,2.06969l1.64883,8.75149c0,0 0.29542,1.88281 -1.67419,2.73959c-2.09436,0.91105 -4.41379,0.3044 -4.41379,0.3044l-16.99564,-4.81966c0,0 -2.10431,-0.74121 -2.40551,-1.9393c-0.30891,-1.22877 1.6445,-2.6267 1.6445,-2.6267z" stroke-linecap="round"/><path d="M206.09029,171.60002c0,0 3.76167,-0.7254 5.4121,-1.15497c1.39142,-0.36215 3.84672,-1.25486 3.84672,-1.25486c0,0 1.4219,-0.2997 3.16392,-0.26996c2.00184,0.03419 2.92408,0.65045 2.92408,0.65045l16.61514,6.72216c0,0 1.77567,0.44514 1.77567,2.283c0,1.37276 -1.77567,2.02933 -1.77567,2.02933l-24.73247,6.46849c0,0 -1.93995,0.26872 -4.6154,-0.151c-2.74363,-0.43042 -3.12142,-2.38566 -3.12142,-2.38566l-2.28299,-10.01982c0,0 -0.21048,-1.15333 0.54176,-2.00191c0.67797,-0.7648 2.24857,-0.91525 2.24857,-0.91525z" stroke-linecap="round"/><path d="M230.96866,160.47462c0,0 4.98164,0.49242 7.49652,0.61611c2.63719,0.1297 7.97713,0.14488 7.97713,0.14488c0,0 2.10527,0.2055 3.16,0.95168c1.86101,1.31659 1.27916,2.98015 1.27916,2.98015l-1.90249,7.86366c0,0 -0.55985,1.97698 -3.46267,2.31721c-3.31282,0.38828 -5.28882,-0.79521 -5.28882,-0.79521l-14.83949,-6.08799c0,0 -2.33561,-0.81346 -2.34668,-2.92956c-0.00971,-1.85824 1.23008,-1.69566 2.21985,-2.77793c0.98977,-1.08227 0.79306,-1.17696 2.41262,-1.8951c1.42552,-0.6321 3.29487,-0.38789 3.29487,-0.38789z" stroke-linecap="round"/><path d="M259.7772,161.11657c0,0 2.72195,-0.02979 10.0174,-0.76295c6.85715,-0.68911 6.57819,-0.88174 8.84612,-1.1064c2.45297,-0.24299 3.91897,-0.48405 4.93026,-0.0037c2.23568,1.06193 0.84776,3.06265 0.84776,3.06265l-7.47744,6.79767c0,0 -1.21682,0.83812 -2.41051,1.45052c-1.63498,0.83881 -3.53745,1.43848 -3.53745,1.43848l-11.55604,2.889c0,0 -2.1572,0.32525 -4.6237,-0.5483c-1.88296,-0.66688 -1.4942,-2.85053 -1.4942,-2.85053l1.52948,-7.13755c0,0 0.47029,-1.76727 1.80489,-2.47758c0.86321,-0.45943 3.12342,-0.75131 3.12342,-0.75131z" stroke-linecap="round"/><path d="M260.45697,161.11658c0,0 -4.79173,0.22838 -7.14271,0.25705c-2.29262,0.02796 -6.79251,-0.08711 -6.79251,-0.08711" stroke-linecap="round"/><path d="M232.92642,160.77669c0,0 -3.80501,-0.43085 -5.51529,-0.7009c-1.48738,-0.23485 -4.17138,-0.82858 -4.17138,-0.82858" stroke-linecap="round"/><path d="M300.73314,152.95938c0,0 -2.5885,1.97158 -3.84949,2.347c-1.95209,0.58117 -5.3053,1.40981 -7.12135,1.85933c-2.70345,0.66917 -8.40251,1.74162 -8.40251,1.74162" stroke-linecap="round"/><path d="M176.84567,142.59293l-2.37919,-0.33988" stroke-linecap="round"/><path d="M319.15092,297.69014c0,0 -4.57281,2.72109 -8.88812,2.04973c-4.38808,-0.68268 -7.37459,-2.39169 -7.37459,-2.39169l-48.50613,-30.08365c0,0 -7.35036,-3.91314 -7.73902,-14.47525c-0.47907,-11.52255 3.90311,-23.24783 3.90311,-23.24783l13.25545,-42.99524c0,0 0.9821,-2.21786 1.52828,-3.12815c0.6311,-1.05184 1.75479,-2.24838 1.75479,-2.24838" stroke-linecap="round"/><path d="M350.75796,113.76885l7.0215,-5.02769c0,0 3.69202,-2.09228 4.49455,3.47943c0.5018,3.48387 -0.01589,5.41869 -0.01589,5.41869l-23.73312,134.18977c0,0 -2.08506,11.89438 -5.75471,23.2481c-2.10474,6.51197 -5.6759,14.06012 -8.51927,17.87016c-8.28908,10.86016 -17.23003,4.9723 -17.23003,4.9723l-45.59267,-28.42458c0,0 -6.18702,-3.32256 -6.55492,-14.09271c-0.37625,-9.0352 3.71421,-22.40042 3.71421,-22.40042l13.93522,-43.50507c0,0 1.63581,-4.28641 2.6959,-6.33619c0.99935,-1.93233 3.4932,-5.63092 3.4932,-5.63092" stroke-linecap="round"/><path d="M304.2063,297.59123l-43.40185,-27.11351" stroke-linecap="round"/><path d="M351.95844,97.07267c0,0 6.17976,1.78652 6.30586,5.02223c0.10516,2.69855 -4.88948,4.18422 -4.88948,4.18422" stroke-linecap="round"/><path d="M358.23097,102.53584v5.26083" stroke-linecap="round"/><path d="M149.01181,148.36577l11.12868,-4.0468c0,0 2.38398,-0.90638 4.41706,-0.61721c2.58646,0.36787 4.48588,1.83124 4.48588,1.83124l4.65381,3.23744" stroke-linecap="round"/><path d="M137.6808,136.5289l8.59943,-7.58774c0,0 2.02953,-1.41375 3.2135,-1.75693c1.14137,-0.33083 3.76721,-0.26646 3.76721,-0.26646" stroke-linecap="round"/><path d="M141.22174,140.77803c0,0 0.89123,-1.56899 1.48424,-2.29755c0.58725,-0.72148 2.0567,-2.05275 2.0567,-2.05275l9.40879,-8.29593" stroke-linecap="round"/><path d="M138.996,157.26871c0,0 0.95578,-1.23542 2.33281,-1.5013c1.24201,-0.23981 3.43386,0.08492 3.43386,0.08492l21.54917,3.23744c0,0 1.0815,0.31381 1.58584,0.46555c0.80561,0.24239 1.75277,0.95082 1.75277,0.95082" stroke-linecap="round"/><path d="M154.3929,175.47927l14.7517,-3.94562c0,0 1.28277,-0.38503 3.42101,-0.00361c1.44794,0.25829 3.41683,1.2516 4.50269,1.63049" stroke-linecap="round"/><path d="M179.26158,181.85297l4.45147,-3.64211c0,0 1.46639,-1.33684 3.44278,-1.35981c1.71273,-0.01991 3.0949,0.43068 4.90192,0.68052c2.1838,0.30193 3.61521,0.47835 4.40179,0.50439c2.26454,0.03478 3.44068,1.38894 3.44068,1.38894" stroke-linecap="round"/><path d="M204.55404,178.00851c0,0 3.33625,-0.43294 6.58716,-1.37809c2.039,-0.5928 3.98306,-1.81671 5.24021,-1.92542c3.81164,-0.32961 5.77617,0.77427 5.77617,0.77427l12.94974,5.86785" stroke-linecap="round"/><path d="M225.60029,168.35541c0,0 1.65237,-1.19356 3.67609,-1.39836c2.13449,-0.21601 5.35342,0.29955 8.96924,0.38834c3.61583,0.0888 6.69352,-0.30155 8.71322,0.05304c2.16988,0.38096 2.56222,1.98066 2.56222,1.98066" stroke-linecap="round"/><path d="M253.98294,169.42174c0,0 1.21108,-2.09269 4.57083,-2.60675c1.87984,-0.28762 6.57028,-0.1336 10.38602,-0.37169c3.98642,-0.24875 7.76021,-0.69499 9.91564,-0.97722c1.16289,-0.15226 1.85471,0.17899 1.85471,0.17899" stroke-linecap="round"/><path d="M345.55169,189.33837c0,0 -0.67982,3.56918 -2.36523,5.71681c-1.10125,1.40326 -2.5689,1.53547 -4.00872,1.33186c-3.19321,-0.45156 -2.37907,-5.50402 -2.37907,-5.50402l7.98069,-44.53745c0,0 0.70006,-3.25329 1.24111,-4.45134c0.59029,-1.70696 1.41099,-2.83599 2.94895,-3.9919c1.45847,-1.09617 3.0913,-2.74411 4.38922,-1.59161c1.59198,1.41362 0.68863,5.4009 0.68863,5.4009z" stroke-linecap="round"/><path d="M339.25421,153.86619l-2.40983,13.57115c0,0 -0.73982,5.22785 -2.69459,6.55741c-2.95134,2.00738 -3.64707,-1.35725 -3.64707,-1.35725l-1.39517,-10.27348c0,0 -0.50902,-3.05739 0.20256,-5.40037c0.54865,-1.80651 2.20727,-3.73162 2.20727,-3.73162l2.91717,-3.04399c0,0 2.81432,-2.87205 4.28724,-1.44101c1.37385,1.33477 0.53242,5.11917 0.53242,5.11917z" stroke-linecap="round"/><path d="M314.26806,173.01801c0,0 -0.19307,-2.18235 0.67799,-4.4068c0.46758,-1.19409 2.74651,-3.71052 2.74651,-3.71052c0,0 3.5854,-4.90374 5.41508,-3.02981c1.21325,1.24259 1.83549,8.11827 1.48762,10.12234c-0.83633,4.81817 -2.20987,5.71761 -2.20987,5.71761l-3.04399,3.4245c0,0 -1.3454,1.86581 -3.03401,1.37206c-1.53566,-0.44903 -1.65882,-3.4014 -1.65882,-3.4014l-0.3805,-6.08799z" stroke-linecap="round"/><path d="M341.79088,210.68745l-4.9465,27.77647c0,0 -0.76376,4.56146 -3.10874,6.35133c-1.99721,1.52442 -4.35449,0.05847 -5.19389,-1.33201c-1.03488,-1.7143 -0.19519,-6.54131 -0.19519,-6.54131l5.70749,-28.91797c0,0 0.49165,-2.15481 2.65709,-3.02541c1.12155,-0.45091 2.72441,-1.57817 4.49357,0.14533c1.62141,1.57956 0.58616,5.54357 0.58616,5.54357z" stroke-linecap="round"/><path d="M325.42226,182.69606c1.71488,0.18753 2.03647,2.37109 2.03647,2.37109l2.6635,16.36148c0,0 0.18579,0.79277 0.17127,2.41446c-0.00907,1.01266 -0.29811,2.27837 -0.29811,2.27837l-3.93183,22.44947c0,0 -0.6145,5.1797 -3.27596,6.54581c-2.84914,1.46244 -3.31936,-2.61398 -3.31936,-2.61398l-2.79033,-34.11812c0,0 -0.1768,-3.02797 0.29366,-5.00399c0.49285,-2.07005 1.8625,-4.128 1.8625,-4.128l3.80499,-5.07333c0,0 0.98519,-1.67989 2.7832,-1.48326z" stroke-linecap="round"/><path d="M309.95574,177.96449l2.53667,29.67897c0,0 0.24224,2.50751 -0.51654,5.32405c-0.59751,2.21791 -2.52746,4.18844 -2.52746,4.18844l-6.97582,8.11732c0,0 -1.05866,1.73326 -2.9679,0.86247c-1.53686,-0.70094 -1.2176,-2.76497 -1.2176,-2.76497l0.88783,-36.27429c0,0 0.07571,-3.55982 1.07575,-5.00122c0.72055,-1.03857 5.21167,-6.78875 7.12953,-7.42539c2.63202,-0.87371 2.57554,3.29462 2.57554,3.29462z" stroke-linecap="round"/><path d="M309.32157,224.89278c0,0 1.76202,-2.16575 3.3469,-1.62539c1.90476,0.64941 1.9801,4.16205 1.9801,4.16205l1.64884,19.15181c0,0 0.33162,2.28534 -0.47613,5.03032c-0.48617,1.65213 -2.03218,3.9561 -2.48698,4.66c-2.27335,3.51854 -4.39322,1.97833 -4.39322,1.97833l-7.86366,-5.32699c0,0 -1.33738,-1.08656 -1.89634,-2.18703c-0.76829,-1.5126 -0.51349,-4.02781 -0.51349,-4.02781v-2.91716c0,0 0.11857,-3.35318 0.48443,-4.85965c0.47919,-2.46554 2.17906,-4.65284 2.17906,-4.65284l7.9905,-9.38565z" stroke-linecap="round"/><path d="M299.55543,261.54756l6.08799,3.805c0,0 2.48365,1.15182 2.3161,4.20799c-0.03256,0.59389 -0.26172,3.17171 -0.44172,5.02344c-0.27954,2.87568 -0.64003,5.68505 -1.46012,7.39475c-1.79657,3.74542 -4.59975,2.3988 -4.59975,2.3988l-7.48316,-4.05866c0,0 -2.67778,-1.08061 -2.87455,-4.04915c-0.18389,-2.7742 0.84521,-5.46334 0.84521,-5.46334l1.77567,-4.9465c0,0 0.73994,-2.58243 2.91159,-3.89461c1.8845,-1.13867 2.92275,-0.41771 2.92275,-0.41771z" stroke-linecap="round"/><path d="M281.67194,217.7901c0,0 0.93888,-0.79765 2.34875,-0.06123c1.64401,1.05923 1.32941,3.48573 1.32941,3.48573l-0.12683,15.60048c0,0 0.04105,5.0191 -2.21053,10.80866c-2.3676,6.08787 -5.14579,8.34315 -5.14579,8.34315l-5.32699,5.20016c0,0 -1.81039,1.95588 -3.42199,2.43494c-2.29917,0.68345 -2.91968,-1.92761 -2.91968,-1.92761l-0.63416,-10.65398c0,0 -0.59663,-10.00356 2.97859,-17.52619c3.51795,-7.40214 6.78757,-9.99661 6.78757,-9.99661l6.34166,-5.70749z" stroke-linecap="round"/><path d="M267.77631,263.65549c0,0 -1.9436,0.03017 -3.74655,-0.69038c-1.39035,-0.55565 -1.58296,-2.25189 -1.58296,-2.25189l-0.63416,-10.65398c0,0 -0.59663,-10.00356 2.97859,-17.52619c3.51795,-7.40215 6.78757,-9.99661 6.78757,-9.99661l6.34166,-5.7075c0,0 0.80243,-0.68808 2.32837,-0.61494c1.60203,0.07678 3.69855,1.44154 3.69855,1.44154" stroke-linecap="round"/><path d="M267.87033,238.6683c2.18969,-8.47907 7.33252,-14.3369 11.48681,-13.08384c4.15429,1.25307 5.7469,9.14251 3.55721,17.62157c-2.18969,8.47907 -7.33252,14.3369 -11.48681,13.08384c-4.15429,-1.25306 -5.74691,-9.14251 -3.55722,-17.62157z" stroke-linecap="butt"/><path d="M278.06051,231.15448c2.39457,0.77693 3.31257,5.66862 2.05041,10.92587c-1.26216,5.25726 -4.22652,8.88928 -6.62109,8.11235c-2.39457,-0.77693 -3.31257,-5.66862 -2.05041,-10.92587c1.26216,-5.25726 4.22653,-8.88928 6.62109,-8.11235z" stroke-linecap="butt"/><path d="M274.96491,240.3737c0.60527,-2.44183 2.02684,-4.12879 3.17516,-3.76793c1.14832,0.36086 2.52601,2.90073 1.92073,5.34256c-0.60528,2.44183 -2.9643,3.86095 -4.11262,3.50009c-1.14832,-0.36086 -1.58856,-2.63289 -0.98328,-5.07472z" stroke-linecap="butt"/><path d="M285.60377,219.81944l3.67816,-1.39517c0,0 2.37152,-0.81313 3.91991,0.14386c1.42784,0.88249 1.15341,3.40747 1.15341,3.40747v14.07849c0,0 0.44028,6.04701 -3.64452,8.67036c-2.50932,1.61154 -5.48746,-1.94819 -5.48746,-1.94819" stroke-linecap="round"/><path d="M329.08544,251.53606c4.60064,1.78306 5.92168,11.68134 2.95063,22.10843c-2.97105,10.42709 -9.10913,17.43447 -13.70977,15.6514c-4.60064,-1.78306 -5.92168,-11.68135 -2.95063,-22.10844c2.97105,-10.42709 9.10913,-17.43445 13.70977,-15.65139z" stroke-linecap="butt"/><path d="M325.68161,265.57862c1.39073,0.47443 2.99681,3.61496 2.18577,6.57707c-0.81104,2.96211 -3.73208,4.6241 -5.12282,4.14968c-1.39074,-0.47442 -1.86067,-3.26029 -1.04963,-6.2224c0.81105,-2.96212 2.59594,-4.97877 3.98668,-4.50435z" stroke-linecap="butt"/><path d="M319.3414,289.57768l-3.53992,-0.78685c-0.07101,-0.02317 -0.14169,-0.04837 -0.21201,-0.07562c-4.60064,-1.78307 -5.92168,-11.68135 -2.95063,-22.10844c2.83573,-9.95216 8.55656,-16.78904 13.072,-15.84084l3.01621,0.63495" stroke-linecap="butt"/><path d="M281.92561,250.76674l7.60999,4.1855c0,0 2.24731,0.91512 2.18277,4.35138c-0.02666,1.41924 -0.94098,4.16538 -1.836,6.79848c-0.97697,2.87419 -1.97953,5.6137 -2.99526,6.34573c-2.50941,1.80853 -4.581,0.38788 -4.581,0.38788l-7.22949,-4.05866c0,0 -2.05646,-1.24647 -2.68971,-2.98388c-0.74617,-2.04724 -0.10062,-4.11879 -0.10062,-4.11879" stroke-linecap="round"/><path d="M285.60377,192.55031l4.43917,-3.67816c0,0 1.9839,-1.74244 3.32814,-1.4382c1.67793,0.37976 1.36469,3.46753 1.36469,3.46753l-0.12683,10.14666c0,0 0.04152,2.73838 -1.50498,6.09991c-1.13016,2.45655 -3.56835,3.66625 -3.56835,3.66625c0,0 -3.66456,2.00426 -6.33464,1.16701c-1.99261,-0.62482 -1.40218,-4.08418 -1.40218,-4.08418l0.66148,-8.63153c0,0 0.26882,-2.24642 0.73248,-3.36557c0.68232,-1.64691 2.41103,-3.34972 2.41103,-3.34972z" stroke-linecap="round"/><path d="M277.06752,202.73884c0.7208,1.36522 0.73048,3.50905 0.44507,6.03474c-0.25337,2.24218 -1.29447,3.94321 -1.29447,3.94321c0,0 -1.95107,3.29657 -4.41962,5.15355c-3.44589,2.59218 -2.66604,-5.87738 -1.57112,-9.17952c1.2423,-3.74663 3.83458,-6.24752 3.83458,-6.24752c0,0 1.80748,-1.97364 3.00556,0.29554z" stroke-linecap="round"/><path d="M281.99424,181.57661c0.60527,-2.44183 2.02684,-4.12879 3.17516,-3.76793c1.14832,0.36086 2.52601,2.90073 1.92073,5.34256c-0.60528,2.44183 -2.9643,3.86095 -4.11262,3.50009c-1.14832,-0.36086 -1.58856,-2.63289 -0.98328,-5.07472z" stroke-linecap="butt"/><path d="M298.79405,166.19353c1.14832,0.36086 2.52601,2.90073 1.92073,5.34256c-0.60528,2.44183 -2.9643,3.86095 -4.11262,3.50009c-1.14832,-0.36086 -1.58856,-2.63289 -0.98328,-5.07472c0.60528,-2.44183 2.02685,-4.12879 3.17517,-3.76793z" stroke-linecap="butt"/><path d="M302.01406,163.92698c0.60527,-2.44183 2.02684,-4.12879 3.17516,-3.76793c1.14832,0.36086 2.52601,2.90073 1.92073,5.34256c-0.60528,2.44183 -2.9643,3.86095 -4.11262,3.50009c-1.14832,-0.36086 -1.58856,-2.63289 -0.98328,-5.07472z" stroke-linecap="butt"/><path d="M316.0189,152.96146c0.60527,-2.44183 2.02684,-4.12879 3.17516,-3.76793c1.14832,0.36086 2.52601,2.90073 1.92073,5.34256c-0.60528,2.44183 -2.9643,3.86095 -4.11262,3.50009c-1.14832,-0.36086 -1.58856,-2.63289 -0.98328,-5.07472z" stroke-linecap="butt"/><path d="M325.58922,143.15905c1.14832,0.36086 2.52601,2.90073 1.92073,5.34256c-0.60528,2.44183 -2.9643,3.86095 -4.11262,3.50009c-1.14832,-0.36086 -1.58856,-2.63289 -0.98328,-5.07472c0.60528,-2.44183 2.02685,-4.12879 3.17517,-3.76793z" stroke-linecap="butt"/><path d="M339.59405,131.39353c1.14832,0.36086 2.52601,2.90073 1.92073,5.34256c-0.60527,2.44183 -2.96429,3.86095 -4.11261,3.50009c-1.14832,-0.36086 -1.58856,-2.63289 -0.98328,-5.07472c0.60527,-2.44183 2.02684,-4.12879 3.17516,-3.76793z" stroke-linecap="butt"/><path d="M342.81406,129.12698c0.60527,-2.44183 2.02684,-4.12879 3.17516,-3.76793c1.14832,0.36086 2.52601,2.90073 1.92073,5.34256c-0.60528,2.44183 -2.9643,3.86095 -4.11262,3.50009c-1.14832,-0.36086 -1.58856,-2.63289 -0.98328,-5.07472z" stroke-linecap="butt"/><path d="M356.19424,117.57661c0.60527,-2.44183 2.02684,-4.12879 3.17516,-3.76793c1.14832,0.36086 2.52601,2.90073 1.92073,5.34256c-0.60528,2.44183 -2.9643,3.86095 -4.11262,3.50009c-1.14832,-0.36086 -1.58856,-2.63289 -0.98328,-5.07472z" stroke-linecap="butt"/><path d="M319.51578,189.43881l1.71428,8.85714c0,0 0.21626,1.16431 0.24578,3.43017c0.02261,1.73545 -0.38864,3.85555 -0.38864,3.85555l-2.71429,13.14285" stroke-linecap="round"/><path d="M301.37291,181.15309l2.42858,23.42857c0,0 0.43591,2.1011 -0.31014,5.32283c-0.52492,2.26683 -2.68986,4.24859 -2.68986,4.24859l-2.14286,2.42857" stroke-linecap="round"/><path d="M315.23006,168.29595c0,0 -0.12079,1.59719 -0.24442,2.41319c-0.11361,0.74982 -0.61273,2.15824 -0.61273,2.15824" stroke-linecap="round"/><path d="M305.80149,229.58166l1.42857,14.57143c0,0 0.39042,2.9843 -0.51507,5.14548c-0.90549,2.16117 -2.48493,4.85452 -2.48493,4.85452" stroke-linecap="round"/><path d="M280.65863,252.72452c0,0 1.41,2.13262 1.66503,4.73174c0.25214,2.56968 -1.70934,7.31101 -2.95968,9.70491c-0.93101,1.78251 -1.84821,2.42049 -1.84821,2.42049" stroke-linecap="round"/><path d="M296.0872,262.72452c0,0 2.50045,0.02832 2.97479,2.57425c0.26821,1.43956 -0.04342,6.96273 -1.03747,10.66679c-0.83711,3.11926 -2.36589,4.6161 -2.36589,4.6161" stroke-linecap="round"/><path d="M156.16399,252.29595l-39.4,-24.2c0,0 -5.82789,-2.5366 -6.60751,-13.2863c-0.8817,-12.1572 3.40751,-23.5137 3.40751,-23.5137l14,-43.4l5.8,-10.8" stroke-linecap="round"/><path d="M156.964,249.49595l-31.8,-19.4c0,0 -5.35256,-2.88673 -5.88494,-11.79379c-0.89087,-12.56221 3.28494,-23.80621 3.28494,-23.80621l11.32727,-37.32728" stroke-linecap="round"/><path d="M181.69782,298.10819c-1.87637,0.75506 -3.77433,1.03356 -5.65794,0.77703c-12.23182,-1.66583 -19.22672,-25.2629 -15.62355,-52.70553c0.25133,-1.91425 0.5476,-2.99664 0.88545,-4.84174" stroke-linecap="butt"/><path d="M177.38115,298.99152c0,0 -1.65767,0.15023 -3.54128,-0.1063c-12.23182,-1.66583 -19.82672,-25.6629 -16.22355,-53.10553c0.25134,-1.91424 0.54761,-3.79664 0.88546,-5.64174" stroke-linecap="butt"/><path d="M171.70054,231.84283c-3.83931,6.88202 -8.68763,10.66552 -12.94846,9.26364c-6.72432,-2.21241 -9.43907,-16.50188 -6.06356,-31.91644c0.242,-1.10511 0.50873,-2.186 0.79788,-3.23965" stroke-linecap="butt"/><path d="M141.36461,232.7882c-2.6159,2.23899 -5.23651,3.02921 -7.54127,1.96164c-6.34993,-2.94129 -7.89765,-18.87078 -3.45692,-35.57955c1.44,-5.41819 3.33288,-10.25298 5.45002,-14.21271" stroke-linecap="butt"/><path d="M127.34718,231.29311c-3.83135,-5.86067 -4.24754,-19.12609 -0.58075,-32.92282c2.11985,-7.9762 5.22113,-14.68812 8.57453,-19.20525" stroke-linecap="butt"/><path d="M133.81508,230.70636l15.49783,4.37919" stroke-linecap="round"/><path d="M158.50055,241.04283c0,0 0.71237,0.46552 -3.54846,-0.93636c-6.72432,-2.21241 -9.43907,-16.50188 -6.06356,-31.91644c0.242,-1.10511 0.50873,-2.186 0.79788,-3.23965" stroke-linecap="butt"/><path d="M147.1129,228.08555l-15.49783,-4.37919" stroke-linecap="round"/><path d="M146.91291,221.48555l-15.49783,-4.37919" stroke-linecap="round"/><path d="M131.81508,210.30636l15.49783,4.37919" stroke-linecap="round"/><path d="M133.21508,203.50636l15.49783,4.37918" stroke-linecap="round"/><path d="M258.39257,202.69595l-48.28572,17.41559c0,0 -2.28116,0.90019 -5.15594,0.95757c-2.75549,0.055 -4.98692,-0.65887 -4.98692,-0.65887l-60.3,-17.91429c0,0 -2.32338,-0.6804 -3.15157,-1.23554c-1.26169,-0.84572 -1.34843,-2.36446 -1.34843,-2.36446l0.1,-9.1" stroke-linecap="round"/><path d="M154.76491,218.7737c0.60527,-2.44183 2.02684,-4.12879 3.17516,-3.76793c1.14832,0.36086 2.52601,2.90073 1.92073,5.34256c-0.60528,2.44183 -2.9643,3.86095 -4.11262,3.50009c-1.14832,-0.36086 -1.58856,-2.63289 -0.98328,-5.07472z" stroke-linecap="butt"/><path d="M165.30171,230.28578c-0.01608,0.3191 -0.06137,0.64167 -0.14091,0.96255c-0.60528,2.44183 -2.9643,3.86095 -4.11262,3.50009c-1.14832,-0.36086 -1.58856,-2.63289 -0.98328,-5.07472c0.17699,-0.71401 0.42377,-1.36348 0.7131,-1.91607" stroke-linecap="butt"/><path d="M157.64015,214.38954c0,0 0.21634,-2.06836 0.36944,-3.02098c0.14662,-0.91231 0.63056,-2.67902 0.63056,-2.67902" stroke-linecap="round"/><path d="M171.44015,231.88954c0,0 -2.94138,0.26772 -5.86159,-0.83721c-2.2543,-0.85297 -4.15657,-1.80989 -5.63297,-3.41805c-1.44497,-1.57391 -1.90543,-3.64474 -1.90543,-3.64474" stroke-linecap="round"/><path d="M246.02374,243.47703l-63.55859,-18.3625c0,0 -1.76184,-0.66043 -1.10147,-5.71798c0.26517,-2.03087 1.12647,-3.80701 1.12647,-3.80701" stroke-linecap="round"/><path d="M252.39874,222.47704l-26.875,-7.625" stroke-linecap="round"/><path d="M180.39874,222.85204l-7.75,2.5l-3,-3.125" stroke-linecap="round"/><path d="M180.52374,218.85204l-7.45907,0.32247l-2.66593,-1.07247" stroke-linecap="round"/><path d="M169.89874,226.72704l4.375,4.625l9.125,-5.25l2.625,1.625l-4.875,7.125l-2,-1.375" stroke-linecap="round"/><path d="M182.89875,227.10204l0.875,1.5l-6.75,6l-4.38359,-2.3125c0,0 -3.08768,-2.8799 -3.15192,-8.38337c-0.08226,-7.04729 1.25191,-11.21663 1.25191,-11.21663" stroke-linecap="round"/><path d="M180.64874,214.72704l-6.47853,-0.98541l-2.52147,-0.76459" stroke-linecap="round"/><path d="M163.27374,245.22704l16.75,5.125" stroke-linecap="round"/><path d="M179.14874,257.85204l-16.625,-4.875" stroke-linecap="round"/><path d="M178.89874,264.97704l-16.25,-4.625" stroke-linecap="round"/><path d="M178.64874,271.22704l-15.875,-4.25" stroke-linecap="round"/><path d="M180.41659,277.9056l-16.76785,-4.42857" stroke-linecap="round"/><path d="M179.14874,282.97704l-14.125,-3.875" stroke-linecap="round"/><path d="M167.27374,284.22704l12,3.375" stroke-linecap="round"/><path d="M170.27374,288.35204l8.875,2.5" stroke-linecap="round"/><path d="M175.27374,292.47704l4.25,1.125" stroke-linecap="round"/><path d="M168.02374,238.22704l13.125,3.875" stroke-linecap="round"/><path d="M195.97374,235.45204l2.75,5.75l-5.125,4.125l-2.25,-5.625z" stroke-linecap="round"/><path d="M208.09874,232.95204l1,2.125l-6.875,3.625l-2.75,-6.125l2.375,-1.625" stroke-linecap="round"/><path d="M205.09874,243.57704l6.75,-3.875l3.625,6.375l-5.875,4.125z" stroke-linecap="round"/><path d="M200.72374,246.07704l3.75,6.375l-5.75,4.625l-3.375,-6.625z" stroke-linecap="round"/><path d="M225.72374,238.07704l1,1.875l-6.5,3.125l-3.375,-5.75l2,-1.25" stroke-linecap="round"/><path d="M281.47375,283.82703c0,0 -19.13517,36.43336 -33.56634,21.94754c-15.90081,-15.96103 -2.43367,-62.19754 -2.43367,-62.19754" stroke-linecap="round"/><path d="M201.22374,261.82703l5.625,-4l4.875,5.125l-6,5z" stroke-linecap="round"/><path d="M218.97374,250.70204l3.75,5.75l-6.5,4.5l-4.25,-6.25z" stroke-linecap="round"/><path d="M295.32453,292.96452c0,0 -28.45936,61.23027 -55.67907,44.49216c-28.51757,-17.5362 -6.32093,-97.69216 -6.32093,-97.69216" stroke-linecap="round"/><path d="M230.01208,252.65264l-2.42858,1.21429l-4,-5.35715l6.57143,-3.42857l1,1.78571" stroke-linecap="round"/><path d="M227.15494,268.22407l-3.07143,1.57143l-3.92857,-4.64286l5.71428,-4.07143l1.92857,2.42857" stroke-linecap="round"/><path d="M225.51208,281.86692l-3.35715,2.92857l-3.85715,-3.85715l4.5,-3.85714l2.78571,2.57143" stroke-linecap="round"/><path d="M215.22636,267.93834l4.64285,5.35715l-6,4.5l-5.14285,-5.21429z" stroke-linecap="round"/><path d="M194.29779,229.00978l0.21429,2.07143l-4.57143,3.78571l-0.21428,-5l1.64285,-1.71429" stroke-linecap="round"/><path d="M185.72637,240.50978l1.14285,-4.78571" stroke-linecap="round"/><path d="M188.51208,242.58121l1,5.64285l-3.35715,3.85715l-0.57143,-5.71429z" stroke-linecap="round"/><path d="M183.51208,250.93835l-0.64286,4.78572" stroke-linecap="round"/><path d="M191.65493,253.22406l3.14285,6.35714l-4.64285,3.92857l-2.57143,-6.35715z" stroke-linecap="round"/><path d="M184.72636,259.43835l1.78572,6.14286l-2.5,3.42857l-1.35715,-6.57143z" stroke-linecap="round"/><path d="M197.36922,264.29549l4.5,6.71429l-5.92857,3.78571l-4.07143,-6.64286z" stroke-linecap="round"/><path d="M204.65493,275.00978l5.07143,5.57143l-5.57143,4.85714l-5.14285,-6.07142z" stroke-linecap="round"/><path d="M213.44065,284.29549l4.71429,4.35714l-5.21429,5.07143l-5.5,-4.5z" stroke-linecap="round"/><path d="M224.5835,297.36692l-2.57142,2l-4.78572,-2.78572l5,-5.07143l2.5,1.57143" stroke-linecap="round"/><path d="M225.65493,309.93834l-2.64285,3.14286l-4.92858,-2.5l4.64286,-5.07143l2.57143,1.35715" stroke-linecap="round"/><path d="M212.86922,300.08119l5.35715,3.21429l-5.07143,5.14285l-5.57143,-3.64285z" stroke-linecap="round"/><path d="M188.79779,270.65263l3.57143,6.5l-4.35714,3.92857l-3,-7.21428z" stroke-linecap="round"/><path d="M182.79779,276.29549l2.07143,6.78571l-2.28572,2.14285l-2,-7z" stroke-linecap="round"/><path d="M199.86922,287.72405l-5.07143,4l-4.28571,-6.21428l4.57142,-3.85715z" stroke-linecap="round"/><path d="M203.36922,291.86692l5.57143,5.07142l-4.92857,4.42858l-6.07143,-5.21429z" stroke-linecap="round"/><path d="M214.01208,314.22405l5.35714,2.57143l-3.78572,5l-6.35714,-2.92857z" stroke-linecap="round"/><path d="M227.72636,320.79549l-1.92857,3.14285l-5.35714,-0.85714l3.64285,-4.5l3,-0.14286" stroke-linecap="round"/><path d="M218.44065,332.7955l-5.85715,-2.07143l4.14286,-3.85714l6.07143,1.14285z" stroke-linecap="round"/><path d="M180.65494,274.22406l0.14285,-5.71428" stroke-linecap="round"/><path d="M187.25337,287.42148l4.41667,6.16667l-4,3.16666l-3.08333,-6.66666z" stroke-linecap="round"/><path d="M180.92004,292.2548l1.16667,-0.58333l3,7.08333l-2.91667,1.41667l-0.6463,-1.98611c0,0 -1.77645,-7.45837 -2.11019,-18.19331c-0.34151,-10.98503 -0.05049,-20.08639 1.9586,-32.34054c1.46382,-8.92836 4.27659,-18.67449 4.27659,-18.67449" stroke-linecap="round"/><path d="M190.42004,301.0048l3.83333,-2.58333l5.75,5.16667l-4.08333,3.58333z" stroke-linecap="round"/><path d="M187.83671,302.92148l4.66666,6.16667l-3.58333,2.16666l-3.58333,-6.41666z" stroke-linecap="round"/><path d="M183.10337,306.80481l2.5,6.08334" stroke-linecap="round"/><path d="M203.67004,307.67148l6.08333,4.16667l-4.75,4.16666l-5.83333,-4.5z" stroke-linecap="round"/><path d="M195.83671,313.42148l5.66666,5.33333l-3.83333,2.58334l-5.5,-5.41667z" stroke-linecap="round"/><path d="M187.67004,318.83815l2,-1.5l4.41667,5.33333l-2.58334,1.91667z" stroke-linecap="round"/><path d="M211.83671,324.7548l-4.33334,3.91667l-6,-3.75l4.33334,-3.5z" stroke-linecap="round"/><path d="M198.33671,326.33815l5.83333,4.5l-3.08333,2.25l-5.5,-5.08334z" stroke-linecap="round"/><path d="M191.97004,329.98814l4.16667,4.41667l-0.7105,0.63572" stroke-linecap="round"/><path d="M209.08671,333.08815l6.83333,2.66666l-4.83333,3.5l-5.41667,-3.25z" stroke-linecap="round"/><path d="M203.6065,338.31822l2.50116,1.84113l-1.35765,0.15452l-2.39794,-1.84877z" stroke-linecap="round"/><path d="M226.83671,337.42149l-3.25,4.08333l-6.75,-1.33333l3.83333,-3.41667z" stroke-linecap="round"/><path d="M232.08671,330.33815l-2.16667,3l-5.91667,-0.16667l3.16667,-4.75l3.33333,-0.33333" stroke-linecap="round"/><path d="M235.83671,335.58816l0.66666,3.5l-2.58333,1.83333l-5.16667,0.41667l3.16667,-4.83334z" stroke-linecap="round"/><path d="M232.42004,344.00482l-3.58333,3.58334l-6.33334,-0.16667l3.33334,-2.91667z" stroke-linecap="round"/><path d="M213.92004,342.50482l6.5,1.5l-3,2.91667l-6.58333,-2.25z" stroke-linecap="round"/><path d="M239.00338,348.00481l-2.14744,3.61539l-7.42949,0.39744l3.07692,-3.76282z" stroke-linecap="round"/><path d="M239.92004,341.25482l2.5,1.25l-1.41667,2.25l-5.41666,0.33334z" stroke-linecap="round"/><path d="M218.00337,351.08815l7.33334,-0.16667l0.0895,1.42674" stroke-linecap="round"/><path d="M254.75337,344.00482l-2.33333,1.75l0.83333,-1.75z" stroke-linecap="round"/><path d="M248.50337,344.42148l-4.16666,2.58333l1.41666,-3.16666z" stroke-linecap="round"/><path d="M298.48671,294.56315c0,0 -23.37697,60.47048 -72.28239,58.132c-42.26626,-2.02102 -45.45094,-58.09867 -45.45094,-58.09867" stroke-linecap="round"/><path d="M266.21491,292.1237c0.60527,-2.44183 2.02684,-4.12879 3.17516,-3.76793c1.14832,0.36086 2.52601,2.90073 1.92073,5.34256c-0.60528,2.44183 -2.9643,3.86095 -4.11262,3.50009c-1.14832,-0.36086 -1.58856,-2.63289 -0.98328,-5.07472z" stroke-linecap="butt"/><path d="M247.21491,289.3737c0.60527,-2.44183 2.02684,-4.12879 3.17516,-3.76793c1.14832,0.36086 2.52601,2.90073 1.92073,5.34256c-0.60528,2.44183 -2.9643,3.86095 -4.11262,3.50009c-1.14832,-0.36086 -1.58856,-2.63289 -0.98328,-5.07472z" stroke-linecap="butt"/><path d="M256.30171,272.28576c-0.01607,0.3191 -0.06137,0.64168 -0.14091,0.96256c-0.60528,2.44183 -2.9643,3.86095 -4.11262,3.50009c-1.14832,-0.36086 -1.58856,-2.63289 -0.98328,-5.07472" stroke-linecap="butt"/><path d="M265.96467,274.65592l-18.46154,-4.76923c0,0 -2.21613,-1.45485 -1.5066,-5.82062c0.34668,-2.13312 1.66044,-4.94862 1.66044,-4.94862" stroke-linecap="round"/><path d="M250.11851,285.50207c0,0 -3.96752,-1.13153 -4.44687,-5.22688c-0.82609,-7.05777 0.5238,-11.3885 0.5238,-11.3885" stroke-linecap="round"/><path d="M276.96467,281.57898c0,0 -1.02049,4.10483 -3.88209,5.37156c-2.2098,0.9782 -4.19484,0.08999 -4.19484,0.08999l-1.84615,2.23077c0,0 -4.7841,8.56541 -9.06135,8.90209c-5.78028,0.455 -6.63096,-4.74824 -6.63096,-4.74824" stroke-linecap="round"/><path d="M251.81082,277.11744c0,0 -1.10958,0.79457 -2.67589,1.38159c-1.34437,0.50384 -2.70872,0.69534 -2.70872,0.69534" stroke-linecap="round"/><path d="M268.27236,286.73283c0,0 -5.63917,-1.798 -9.09916,-3.82205c-3.97923,-2.32779 -5.90084,-5.79334 -5.90084,-5.79334" stroke-linecap="round"/><path d="M266.50313,289.11744c0,0 -5.41802,-0.63577 -10.59531,-4.13703c-5.36389,-3.62745 -6.17392,-6.17066 -6.17392,-6.17066" stroke-linecap="round"/><path d="M262.34928,288.80976c0,0 -0.30926,2.01196 -2.05281,4.60963c-2.03632,3.03386 -4.17796,4.23653 -4.17796,4.23653" stroke-linecap="round"/><path d="M274.19543,280.19437c0,0 -0.37586,1.59208 -1.80429,3.33433c-1.56726,1.91157 -3.58033,3.05028 -3.58033,3.05028" stroke-linecap="round"/><path d="M207.50313,346.73284l6.30769,2.15385l-0.15385,0.53846" stroke-linecap="round"/><path d="M285.42621,193.42515l0.07692,7.23077c0,0 0.25162,1.919 -0.76328,3.77228c-0.61109,1.11587 -2.62133,2.53542 -2.62133,2.53542" stroke-linecap="round"/><path d="M198.92644,203.31361c0,0 -15.22049,0.62129 -32.75656,-6.22446c-14.09288,-5.50159 -21.04344,-13.87554 -21.04344,-13.87554" stroke-linecap="round"/><path d="M148.22645,186.81361v-4.4" stroke-linecap="round"/><path d="M151.12644,189.21361v-5.6" stroke-linecap="round"/><path d="M154.52645,185.11361v6.6" stroke-linecap="round"/><path d="M157.72645,185.21361v8.4" stroke-linecap="round"/><path d="M161.32645,186.11361v9.6" stroke-linecap="round"/><path d="M165.42645,187.61361v9.8" stroke-linecap="round"/><path d="M169.32645,198.91361v-10" stroke-linecap="round"/><path d="M173.32645,189.71361v10.3" stroke-linecap="round"/><path d="M177.22645,201.01361v-9.7" stroke-linecap="round"/><path d="M181.22645,192.31361v9.6" stroke-linecap="round"/><path d="M185.12645,192.91361v9.8" stroke-linecap="round"/><path d="M188.72645,193.91361v9.2" stroke-linecap="round"/><path d="M192.82645,195.11361v8.5" stroke-linecap="round"/><path d="M196.62645,196.21361v7.5" stroke-linecap="round"/><path d="M247.62645,186.21361c0,0 -5.71575,6.66611 -16.5888,10.62682c-12.31027,4.48425 -21.5112,5.27318 -21.5112,5.27318" stroke-linecap="round"/><path d="M213.42645,195.61361v6.6" stroke-linecap="round"/><path d="M217.62645,194.51361v6.8" stroke-linecap="round"/><path d="M221.62645,193.81361v6.6" stroke-linecap="round"/><path d="M225.82645,199.21361v-6.5" stroke-linecap="round"/><path d="M229.42645,191.51361v6.6" stroke-linecap="round"/><path d="M233.02645,196.61361v-5.6" stroke-linecap="round"/><path d="M236.22645,189.71361v5.2" stroke-linecap="round"/><path d="M239.22645,188.81361v4.5" stroke-linecap="round"/><path d="M242.22645,188.41361v2.8" stroke-linecap="round"/><path d="M229.92645,197.61361c0,0 3.46144,1.10242 3.76156,2.97384c0.2985,1.86129 -2.26156,2.52616 -2.26156,2.52616l-16.4,6c0,0 -1.14305,0.47488 -2.90022,0.49435c-1.50735,0.0167 -2.39978,-0.29435 -2.39978,-0.29435" stroke-linecap="round"/><path d="M260.92645,193.01362l-16.2,5.6c0,0 -2.80823,0.7999 -6.04799,-0.01179c-2.84121,-0.71184 -5.35201,-2.78822 -5.35201,-2.78822" stroke-linecap="round"/><path d="M244.62645,189.11361l17.5,1.1" stroke-linecap="round"/><path d="M250.52645,195.61361l-2,-5.7" stroke-linecap="round"/><path d="M199.12645,209.31361c0,0 -2.16145,0.96906 -5.65058,0.07254c-5.19491,-1.33482 -14.9488,-4.09237 -17.04731,-4.92616c-2.30306,-0.91506 -0.00211,-3.64638 -0.00211,-3.64638" stroke-linecap="round"/><path d="M171.72645,199.01362c0,0 0.38681,2.05104 -1.60324,2.68599c-1.98324,0.63278 -5.69676,-0.286 -5.69676,-0.286l-13.6,-4c0,0 -4.38565,-1.09882 -3.23749,-2.97391c1.32606,-2.1656 7.73749,-2.82609 7.73749,-2.82609" stroke-linecap="round"/><path d="M149.02645,166.9136c0,0 -0.01581,-2.85329 0.40378,-4.96196c0.54079,-2.71776 2.09622,-4.53804 2.09622,-4.53804" stroke-linecap="round"/><path d="M161.22645,150.01361c0,0 1.5045,-1.00615 3.47149,-2.05889c2.2404,-1.19906 4.02851,-1.74111 4.02851,-1.74111" stroke-linecap="round"/><path d="M145.02645,167.21361l-0.9,-0.9l1.5,-0.8l-1.5,-1.4l1.9,-1l-1.2,-1.3l2,-0.8l-1.3,-1.5l1.9,-1l-0.8,-0.9l1.4,-0.6" stroke-linecap="round"/><path d="M205.02645,189.51361c0,0.27384 -0.55964,0.49583 -1.25,0.49583c-0.69036,0 -1.25,-0.22199 -1.25,-0.49583c0,-0.27384 0.55964,-0.49583 1.25,-0.49583c0.69036,0 1.25,0.22199 1.25,0.49583z" stroke-linecap="butt"/><path d="M141.22645,171.01361c0,0.27384 -0.55964,0.49583 -1.25,0.49583c-0.69036,0 -1.25,-0.22199 -1.25,-0.49583c0,-0.27384 0.55964,-0.49583 1.25,-0.49583c0.69036,0 1.25,0.22199 1.25,0.49583z" stroke-linecap="butt"/><path d="M223.45766,180.7895c0,0.36819 -0.89543,0.66666 -2,0.66666c-1.10457,0 -2,-0.29847 -2,-0.66666c0,-0.36819 0.89543,-0.66666 2,-0.66666c1.10457,0 2,0.29847 2,0.66666z" stroke-linecap="butt"/><path d="M170.45766,173.1895c0,0.36819 -0.89543,0.66666 -2,0.66666c-1.10457,0 -2,-0.29847 -2,-0.66666c0,-0.36819 0.89543,-0.66666 2,-0.66666c1.10457,0 2,0.29847 2,0.66666z" stroke-linecap="butt"/><path d="M213.10232,186.91488c-0.11051,-0.08275 -0.17193,-0.17441 -0.17193,-0.27084c0,-0.36819 0.89543,-0.66666 2,-0.66666c0.95813,0 1.7589,0.22458 1.95439,0.52444" stroke-linecap="butt"/><path d="M217.8253,175.15501c0,0 -1.16244,1.88111 -4.79358,4.01367c-4.84278,2.84416 -7.57007,3.07724 -7.57007,3.07724" stroke-linecap="round"/><path d="M153.64347,165.88227c0,0 0.15255,-0.97341 2.292,-3.67001c1.77904,-2.24232 4.57163,-3.87544 4.57163,-3.87544" stroke-linecap="round"/><path d="M200.50711,182.79137c0,0 -3.84697,-0.29977 -8.93265,-1.23528c-5.11497,-0.9409 -8.1128,-2.53745 -8.1128,-2.53745" stroke-linecap="round"/><path d="M261.11303,342.00136l-3.5,-3.16667" stroke-linecap="round"/><path d="M264.61303,339.66802l-1,-4.16667" stroke-linecap="round"/><path d="M265.44637,333.83469l3.16667,2.16667" stroke-linecap="round"/><path d="M271.7797,333.33469l-0.83333,-3.5" stroke-linecap="round"/><path d="M272.61303,327.66802l2.83333,1.66667" stroke-linecap="round"/><path d="M278.61303,321.00135l1.16667,4" stroke-linecap="round"/><path d="M280.7797,318.33469l2.33333,1" stroke-linecap="round"/><path d="M287.44637,313.83469l-1.33333,-3.33333" stroke-linecap="round"/><path d="M290.7797,307.83468l-2,-0.83333" stroke-linecap="round"/><path d="M294.7797,300.83469l-1.33333,-3.16667" stroke-linecap="round"/></g></g></svg>